<?xml version="1.0"?>
<svg xmlns="http://www.w3.org/2000/svg" height="512" viewBox="0 0 512 512.001" width="512" class=""><g><path d="m403.070312 217.855469c-60.0625 0-108.929687-48.863281-108.929687-108.925781 0-60.066407 48.867187-108.929688 108.929687-108.929688s108.929688 48.863281 108.929688 108.929688c0 60.0625-48.863281 108.925781-108.929688 108.925781zm0-197.855469c-49.035156 0-88.929687 39.894531-88.929687 88.929688 0 49.035156 39.894531 88.929687 88.929687 88.929687 49.039063 0 88.929688-39.894531 88.929688-88.929687 0-49.035157-39.890625-88.929688-88.929688-88.929688zm0 0" data-original="#000000" class="active-path" style="fill:#064D74" data-old_color="#000000"/><path d="m403.070312 178.753906c-38.5 0-69.820312-31.324218-69.820312-69.824218s31.320312-69.824219 69.820312-69.824219c38.503907 0 69.824219 31.324219 69.824219 69.824219s-31.320312 69.824218-69.824219 69.824218zm0-119.648437c-27.472656 0-49.820312 22.351562-49.820312 49.824219 0 27.472656 22.347656 49.820312 49.820312 49.820312 27.472657 0 49.824219-22.351562 49.824219-49.820312 0-27.472657-22.351562-49.824219-49.824219-49.824219zm0 0" data-original="#000000" class="active-path" style="fill:#064D74" data-old_color="#000000"/><path d="m427.339844 125.796875h-24.269532c-5.523437 0-10-4.480469-10-10v-32.179687c0-5.523438 4.476563-10 10-10 5.523438 0 10 4.476562 10 10v22.179687h14.269532c5.523437 0 10 4.476563 10 10 0 5.519531-4.476563 10-10 10zm0 0" data-original="#000000" class="active-path" style="fill:#064D74" data-old_color="#000000"/><path d="m91.46875 379.398438c0-3.589844 4.242188-5.113282 8.484375-5.113282s8.484375 1.523438 8.484375 5.113282v69.195312c0 3.480469-4.242188 5.222656-8.484375 5.222656s-8.484375-1.742187-8.484375-5.222656zm0 0" data-original="#000000" class="active-path" style="fill:#064D74" data-old_color="#000000"/><path d="m157.828125 449.246094-20.667969-37.644532v36.992188c0 3.480469-4.246094 5.222656-8.488281 5.222656s-8.484375-1.742187-8.484375-5.222656v-69.085938c0-3.589843 4.242188-5.222656 8.484375-5.222656 6.09375 0 8.378906.542969 12.511719 8.484375l17.625 33.617188v-36.988281c0-3.589844 4.242187-5.113282 8.488281-5.113282 4.242187 0 8.484375 1.523438 8.484375 5.113282v69.191406c0 3.484375-4.242188 5.222656-8.484375 5.222656-3.917969.003906-7.398437-.757812-9.46875-4.566406zm0 0" data-original="#000000" class="active-path" style="fill:#064D74" data-old_color="#000000"/><path d="m187.527344 379.507812c0-3.480468 3.699218-5.222656 7.398437-5.222656h37.75c3.589844 0 5.113281 3.808594 5.113281 7.289063 0 4.027343-1.847656 7.507812-5.113281 7.507812h-28.179687v18.386719h16.429687c3.265625 0 5.113281 3.15625 5.113281 6.636719 0 2.9375-1.523437 6.417969-5.113281 6.417969h-16.429687v28.070312c0 3.480469-4.242188 5.222656-8.484375 5.222656-4.242188 0-8.484375-1.742187-8.484375-5.222656zm0 0" data-original="#000000" class="active-path" style="fill:#064D74" data-old_color="#000000"/><path d="m241.921875 428.792969v-28.832031c0-18.710938 11.644531-25.675782 26.65625-25.675782s26.761719 6.964844 26.761719 25.675782v28.832031c0 18.710937-11.75 25.675781-26.761719 25.675781s-26.65625-6.964844-26.65625-25.675781zm36.449219-28.832031c0-7.507813-3.699219-10.878907-9.792969-10.878907s-9.683594 3.371094-9.683594 10.878907v28.832031c0 7.507812 3.589844 10.878906 9.683594 10.878906s9.792969-3.371094 9.792969-10.878906zm0 0" data-original="#000000" class="active-path" style="fill:#064D74" data-old_color="#000000"/><path d="m375.933594 266.25h-94.207032v-51.34375c0-13.976562-11.371093-25.34375-25.347656-25.34375h-16.054687c11.636719-11.933594 18.816406-28.230469 18.816406-46.175781 0-36.488281-29.6875-66.171875-66.175781-66.171875-36.488282 0-66.171875 29.683594-66.171875 66.171875 0 17.945312 7.179687 34.242187 18.816406 46.175781h-16.054687c-13.976563 0-25.347657 11.367188-25.347657 25.34375v51.34375h-94.207031c-5.523438 0-10 4.476562-10 10v53.5625c0 5.523438 4.476562 10 10 10h11.308594l9.460937 162.769531c.308594 5.289063 4.683594 9.417969 9.980469 9.417969h304.429688c5.296874 0 9.679687-4.128906 9.984374-9.417969l9.457032-162.769531h11.3125c5.523437 0 10-4.476562 10-10v-53.5625c0-5.523438-4.476563-10-10-10zm-229.140625-122.863281c0-25.457031 20.714843-46.171875 46.175781-46.171875 25.457031 0 46.171875 20.714844 46.171875 46.171875 0 25.460937-20.710937 46.175781-46.171875 46.175781s-46.175781-20.714844-46.175781-46.175781zm-22.585938 71.519531c0-2.945312 2.398438-5.34375 5.347657-5.34375h126.824218c2.949219 0 5.347656 2.398438 5.347656 5.34375v51.34375h-137.519531zm241.726563 104.90625h-10.605469c-.121094 0-.242187 0-.363281 0h-40.011719c-5.523437 0-10 4.476562-10 10s4.476563 10 10 10h29.636719l-8.84375 152.1875h-285.558594l-8.84375-152.1875h177.609375c5.523437 0 10-4.476562 10-10s-4.476563-10-10-10h-198.953125v-33.5625h345.933594zm0 0" data-original="#000000" class="active-path" style="fill:#064D74" data-old_color="#000000"/><path d="m266.289062 339.808594c-.660156 0-1.308593-.058594-1.957031-.1875-.640625-.132813-1.273437-.320313-1.871093-.570313-.601563-.25-1.179688-.5625-1.730469-.921875-.539063-.367187-1.050781-.777344-1.519531-1.238281-.460938-.46875-.871094-.980469-1.242188-1.53125-.359375-.539063-.667969-1.117187-.917969-1.71875-.25-.609375-.441406-1.242187-.570312-1.871094-.128907-.648437-.199219-1.308593-.199219-1.960937 0-.648438.070312-1.308594.199219-1.949219.128906-.640625.320312-1.269531.570312-1.867187.25-.601563.558594-1.191407.917969-1.730469.363281-.550781.78125-1.0625 1.242188-1.519531.460937-.460938.980468-.882813 1.519531-1.242188.539062-.359375 1.128906-.667969 1.730469-.917969.597656-.25 1.230468-.441406 1.871093-.570312 1.289063-.261719 2.617188-.261719 3.910157 0 .636718.128906 1.269531.320312 1.867187.570312.601563.25 1.179687.558594 1.730469.917969.539062.359375 1.0625.78125 1.519531 1.242188.460937.457031.882813.96875 1.242187 1.519531.359376.539062.667969 1.128906.917969 1.730469.25.597656.441407 1.226562.570313 1.867187s.199218 1.300781.199218 1.949219c0 .652344-.070312 1.3125-.199218 1.960937-.128906.628907-.320313 1.261719-.570313 1.871094-.25.601563-.558593 1.179687-.917969 1.71875-.359374.550781-.78125 1.0625-1.242187 1.53125-.46875.460937-.980469.871094-1.519531 1.238281-.550782.359375-1.128906.671875-1.730469.921875-.597656.25-1.230469.4375-1.867187.570313-.652344.128906-1.300782.1875-1.953126.1875zm0 0" data-original="#000000" class="active-path" style="fill:#064D74" data-old_color="#000000"/></g> </svg>
