<?xml version="1.0"?>
<svg xmlns="http://www.w3.org/2000/svg" xmlns:xlink="http://www.w3.org/1999/xlink" version="1.1" id="Capa_1" x="0px" y="0px" viewBox="0 0 512 512" style="enable-background:new 0 0 512 512;" xml:space="preserve" width="512" height="512"><g><g>
	<g>
		<g>
			<path style="fill:#064D74" d="M464.217,114.566L352.913,3.261C350.831,1.169,348.004,0,345.043,0H77.913     c-18.41,0-33.391,14.982-33.391,33.391v445.217c0,18.41,14.982,33.391,33.391,33.391h356.174c18.399,0,33.38-14.97,33.391-33.369     c0-0.011,0-0.011,0-0.022V122.435C467.478,119.485,466.31,116.647,464.217,114.566z M133.565,133.565V89.043h178.087v44.522     H133.565z M445.217,478.609c0,6.144-4.986,11.13-11.13,11.13H77.913c-6.133,0-11.13-4.986-11.13-11.13V33.391     c0-6.133,4.998-11.13,11.13-11.13h233.739v44.522H122.435c-6.144,0-11.13,4.986-11.13,11.13v66.783     c0,6.144,4.986,11.13,11.13,11.13h200.348h122.435V478.609z M445.217,133.565H333.913V22.261h6.522l104.782,104.782V133.565z" data-original="#231F20" class="active-path" data-old_color="#231F20"/>
			<path style="fill:#064D74" d="M122.435,222.609H256c6.144,0,11.13-4.986,11.13-11.13s-4.986-11.13-11.13-11.13H122.435     c-6.144,0-11.13,4.986-11.13,11.13S116.291,222.609,122.435,222.609z" data-original="#231F20" class="active-path" data-old_color="#231F20"/>
			<path style="fill:#064D74" d="M122.435,356.174H256c6.144,0,11.13-4.975,11.13-11.13c0-6.155-4.986-11.13-11.13-11.13H122.435     c-6.144,0-11.13,4.975-11.13,11.13C111.304,351.199,116.291,356.174,122.435,356.174z" data-original="#231F20" class="active-path" data-old_color="#231F20"/>
			<path style="fill:#064D74" d="M111.304,278.261c0,6.155,4.986,11.13,11.13,11.13h267.13c6.155,0,11.13-4.975,11.13-11.13     c0-6.155-4.975-11.13-11.13-11.13h-267.13C116.291,267.13,111.304,272.106,111.304,278.261z" data-original="#231F20" class="active-path" data-old_color="#231F20"/>
			<path style="fill:#064D74" d="M389.565,400.696h-267.13c-6.144,0-11.13,4.975-11.13,11.13s4.986,11.13,11.13,11.13h267.13     c6.155,0,11.13-4.975,11.13-11.13S395.72,400.696,389.565,400.696z" data-original="#231F20" class="active-path" data-old_color="#231F20"/>
		</g>
	</g>
</g></g> </svg>
