<?xml version="1.0" encoding="UTF-8" standalone="no"?>
<svg width="18px" height="18px" viewBox="0 0 18 18" version="1.1" xmlns="http://www.w3.org/2000/svg" xmlns:xlink="http://www.w3.org/1999/xlink">
    <defs></defs>
    <g id="Search-Menu" stroke="none" stroke-width="1" fill="none" fill-rule="evenodd">
        <g id="Search-Menu---Front-Page" transform="translate(-474.000000, -415.000000)" fill="#222222">
            <g id="Content" transform="translate(0.000000, -2.000000)">
                <g id="Search-Copy" transform="translate(0.000000, 263.000000)">
                    <g id="Suggetions" transform="translate(454.000000, 130.689977)">
                        <g id="Sub-Menus">
                            <g id="Page-1" transform="translate(20.000000, 23.310023)">
                                <path d="M16.6405333,4.97046695 L15.2864,4.74171465 C15.2301333,5.00785915 15.1584,5.27537837 15.0728,5.54179782 L16.5114667,5.78457219 C16.9104,5.85110832 17.2,6.2022101 17.2,6.61902319 L17.2,16.7778798 C17.2,16.854039 17.1738667,16.9090275 17.1157333,16.9560427 C17.0728,16.9904105 17.0322667,17.0066321 16.9853333,17.0066321 C16.9677333,17.0066321 16.948,17.0044326 16.928,16.9992087 L12.4,15.8928394 L12.4,10.2834591 C12.3656,10.3274499 12.3312,10.3725405 12.2978667,10.4143318 L11.6,11.2993722 L11.6,15.8876155 L6.4,17.074268 L6.4,5.85000855 L7.67706667,5.66084799 C7.5896,5.39772786 7.51253333,5.13048358 7.45093333,4.86076483 L6.0344,5.07027114 L1.33333333,3.51299587 C1.01973333,3.40879259 0.685333333,3.46460596 0.419733333,3.66448928 C0.149066667,3.86849674 0,4.17038379 0,4.51598672 L0,14.4032 C0,15.0982551 0.387466667,15.6921312 1.01253333,15.9519521 L5.85013333,17.9700312 C5.852,17.971131 5.8552,17.971131 5.85733333,17.9722308 C5.8728,17.9785545 5.8896,17.9829536 5.90613333,17.9870777 C5.9136,17.9892772 5.9208,17.9914768 5.928,17.9925765 C5.952,17.9969756 5.976,18 6,18 C6.02906667,18 6.05733333,17.9969756 6.0864,17.990377 L11.9968,16.6415083 L16.7437333,17.8025912 C16.824,17.8218372 16.9061333,17.8325599 16.9864,17.8325599 C17.2136,17.8325599 17.4301333,17.7531015 17.6125333,17.6049074 C17.8624,17.4008999 18,17.1075361 18,16.7789796 L18,6.61902319 C18,5.79639473 17.428,5.10243943 16.6405333,4.97046695 L16.6405333,4.97046695 Z M5.6,16.9766634 L1.31253333,15.1873365 C0.991733333,15.0531645 0.8,14.7598007 0.8,14.4032 L0.8,4.51598672 C0.8,4.43652829 0.829066667,4.37851539 0.890666667,4.33232502 C0.9312,4.30235627 0.972,4.28723442 1.01573333,4.28723442 C1.03866667,4.28723442 1.06346667,4.2916335 1.08853333,4.30015673 L5.6,5.79419518 L5.6,16.9766634 Z" id="Fill-1"></path>
                                <path d="M11.7691701,9.69230769 L11.7691701,9.69230769 C11.6411705,9.69230769 11.5208001,9.63738534 11.4402706,9.54242107 C9.94016102,7.77624798 6.72406626,3.40951489 9.23715243,1.00402395 C9.91388296,0.356318927 10.8132706,0 11.7691701,0 C12.7250696,0 13.6244572,0.356318927 14.3011878,1.00402395 C16.8145565,3.41059711 13.5981792,7.7773302 12.0980696,9.54242107 C12.0175401,9.63738534 11.8971697,9.69230769 11.7691701,9.69230769 L11.7691701,9.69230769 Z M11.7691701,0.811660425 C11.0396009,0.811660425 10.3518505,1.08329611 9.8364616,1.57786787 C7.9402033,3.39355224 10.4999118,7.05549352 11.7691701,8.63227918 C13.0384284,7.05549352 15.5981369,3.39463445 13.7018786,1.57786787 C13.1864897,1.08329611 12.4998695,0.811660425 11.7691701,0.811660425 L11.7691701,0.811660425 Z M11.7691701,5.23466864 C11.2549114,5.23466864 10.772582,5.04338733 10.4094927,4.69572611 C9.65986177,3.97794774 9.65986177,2.80915673 10.4094927,2.09164892 C10.772582,1.74371715 11.2549114,1.55243584 11.7691701,1.55243584 C12.2834288,1.55243584 12.7657582,1.74371715 13.12913,2.09164892 C13.4922193,2.43931013 13.691989,2.90222713 13.691989,3.39355224 C13.691989,3.88487735 13.4922193,4.34779435 13.12913,4.69572611 C12.7657582,5.04338733 12.2834288,5.23466864 11.7691701,5.23466864 L11.7691701,5.23466864 Z M11.7691701,2.36328461 C11.4820894,2.36328461 11.2116798,2.46988267 11.0088019,2.66441062 C10.5892007,3.06591198 10.5892007,3.71902807 11.0088019,4.12079998 C11.2116798,4.31505737 11.4820894,4.421926 11.7691701,4.421926 C12.0562508,4.421926 12.3266604,4.31505737 12.5295383,4.12079998 C12.7326987,3.92627203 12.8443098,3.66735236 12.8443098,3.39247002 C12.8443098,3.11785825 12.7326987,2.85893857 12.5295383,2.66441062 C12.3266604,2.47096489 12.0562508,2.36328461 11.7691701,2.36328461 L11.7691701,2.36328461 Z" id="Fill-2"></path>
                            </g>
                        </g>
                    </g>
                </g>
            </g>
        </g>
    </g>
</svg>